<svg xmlns="http://www.w3.org/2000/svg" width="33" height="32">
  <g fill="none" fill-rule="evenodd" stroke="#006CFF" stroke-linecap="round" stroke-linejoin="round" stroke-width="1.6" transform="translate(.8 .8)">
    <path d="M30.472727.024727l-3.138909.349091c-2.461992.273644-4.757546 1.37705-6.50909 3.128727L6.56 17.767273l6.167273 6.170182L26.994909 9.672727c1.752254-1.751136 2.855762-4.046904 3.128727-6.50909l.349091-3.13891z"/>
    <circle cx="24" cy="6.181818" r="1.381818"/>
    <path d="M6.56 17.767273l-5.268364-1.757091c-.35873-.119137-.63007-.415707-.716928-.78359-.086857-.367882.023184-.754496.290747-1.021501l.337454-.337455c2.337274-2.337719 5.794753-3.154224 8.93091-2.10909l1.825454.608L6.56 17.767273z"/>
    <path d="M6.56 17.767273l-5.268364-1.757091c-.35873-.119137-.63007-.415707-.716928-.78359-.086857-.367882.023184-.754496.290747-1.021501l.337454-.337455c2.337274-2.337719 5.794753-3.154224 8.93091-2.10909l1.825454.608L6.56 17.767273zM12.727273 23.937455l1.75709 5.268363c.119138.358731.415708.630071.78359.716928.367883.086857.754497-.023183 1.021502-.290746l.338909-.337454c2.337205-2.337588 3.153138-5.795026 2.107636-8.93091l-.60509-1.818181-5.403637 5.392z"/>
    <path d="M12.727273 23.937455l1.75709 5.268363c.119138.358731.415708.630071.78359.716928.367883.086857.754497-.023183 1.021502-.290746l.338909-.337454c2.337205-2.337588 3.153138-5.795026 2.107636-8.93091l-.60509-1.818181-5.403637 5.392zM9.060377 24.709818c.001117.868207-.343854 1.701057-.958559 2.314182C6.824728 28.30109 0 30.4 0 30.4s2.200727-6.727273 3.477818-8c.56101-.562366 1.307698-.901064 2.100364-.952727"/>
  </g>
</svg>
