<?xml version="1.0" encoding="UTF-8" standalone="no"?><!-- Generator: Gravit.io --><svg xmlns="http://www.w3.org/2000/svg" xmlns:xlink="http://www.w3.org/1999/xlink" style="isolation:isolate" viewBox="0 0 64 64" width="64pt" height="64pt"><defs><clipPath id="_clipPath_67QLvrW5Xd4T5E255IbmXD0fKqQHRU5K"><rect width="64" height="64"/></clipPath></defs><g clip-path="url(#_clipPath_67QLvrW5Xd4T5E255IbmXD0fKqQHRU5K)"><rect width="64" height="64" style="fill:rgb(238,238,238)"/><g><path d=" M 50.014 53.889 L 40.461 49.113 C 39.56 48.662 39 47.756 39 46.748 L 39 43.367 C 39.229 43.087 39.47 42.768 39.719 42.416 C 40.958 40.666 41.951 38.718 42.673 36.617 C 44.084 35.97 45 34.575 45 33 L 45 29 C 45 28.037 44.64 27.104 44 26.375 L 44 21.056 C 44.056 20.506 44.276 17.232 41.908 14.531 C 39.854 12.188 36.521 11 32 11 C 27.479 11 24.146 12.188 22.092 14.53 C 19.724 17.231 19.944 20.506 20 21.056 L 20 26.375 C 19.36 27.104 19 28.037 19 29 L 19 33 C 19 34.217 19.553 35.352 20.497 36.109 C 21.413 39.736 23.33 42.469 24 43.346 L 24 46.655 C 24 47.623 23.472 48.511 22.623 48.975 L 13.702 53.841 C 10.801 55.424 9 58.458 9 61.762 L 9 65 C 9 69.746 24.045 71 32 71 C 39.955 71 55 69.746 55 65 L 55 61.957 C 55 58.519 53.089 55.427 50.014 53.889 Z  M 53 65 C 53 66.357 45.588 69 32 69 C 18.412 69 11 66.357 11 65 L 11 61.762 C 11 59.191 12.402 56.828 14.659 55.598 L 23.58 50.732 C 25.073 49.917 26 48.354 26 46.655 L 26 42.636 L 25.767 42.358 C 25.743 42.329 23.292 39.364 22.357 35.293 L 22.266 34.897 L 21.925 34.677 C 21.346 34.303 21 33.676 21 33 L 21 29 C 21 28.439 21.238 27.916 21.67 27.525 L 22 27.228 L 22 21 L 21.991 20.869 C 21.988 20.842 21.648 18.07 23.596 15.848 C 25.253 13.958 28.081 13 32 13 C 35.905 13 38.727 13.951 40.386 15.828 C 42.333 18.029 42.011 20.845 42.009 20.869 L 42 27.228 L 42.33 27.526 C 42.762 27.916 43 28.439 43 29 L 43 33 C 43 33.873 42.428 34.637 41.578 34.899 L 41.08 35.052 L 40.92 35.547 C 40.251 37.628 39.298 39.55 38.086 41.26 C 37.789 41.681 37.5 42.054 37.249 42.339 L 37 42.623 L 37 46.748 C 37 48.518 37.983 50.109 39.566 50.901 L 49.119 55.677 C 51.513 56.874 53 59.28 53 61.957 L 53 65 Z " fill="rgb(204,204,204)"/></g></g></svg>